<svg xmlns="http://www.w3.org/2000/svg" viewBox="0 0 1920 600" width="1920" height="600">
  <!-- Background gradient -->
  <defs>
    <linearGradient id="bgGradient" x1="0%" y1="0%" x2="100%" y2="100%">
      <stop offset="0%" style="stop-color:#ff8c42;stop-opacity:0.8" />
      <stop offset="100%" style="stop-color:#ff6b1a;stop-opacity:0.9" />
    </linearGradient>
    <linearGradient id="steamGradient" x1="0%" y1="100%" x2="0%" y2="0%">
      <stop offset="0%" style="stop-color:#ffffff;stop-opacity:0.1" />
      <stop offset="100%" style="stop-color:#ffffff;stop-opacity:0.8" />
    </linearGradient>
  </defs>
  
  <!-- Main background -->
  <rect width="1920" height="600" fill="url(#bgGradient)"/>
  
  <!-- Decorative food elements -->
  <!-- Bowl 1 -->
  <circle cx="300" cy="450" r="80" fill="#8B4513" opacity="0.3"/>
  <circle cx="300" cy="445" r="75" fill="#D2691E" opacity="0.4"/>
  <ellipse cx="300" cy="440" rx="70" ry="25" fill="#FF6347" opacity="0.6"/>
  
  <!-- Bowl 2 -->
  <circle cx="1600" cy="150" r="60" fill="#8B4513" opacity="0.25"/>
  <circle cx="1600" cy="147" r="55" fill="#D2691E" opacity="0.35"/>
  <ellipse cx="1600" cy="145" rx="50" ry="20" fill="#FFD700" opacity="0.5"/>
  
  <!-- Chopsticks -->
  <rect x="250" y="380" width="100" height="3" fill="#D2691E" opacity="0.4" transform="rotate(25 300 380)"/>
  <rect x="250" y="385" width="100" height="3" fill="#D2691E" opacity="0.4" transform="rotate(25 300 385)"/>
  
  <!-- Steam effects -->
  <path d="M280 400 Q285 380 290 360 Q295 340 300 320" stroke="url(#steamGradient)" stroke-width="3" fill="none" opacity="0.6">
    <animate attributeName="opacity" values="0.3;0.8;0.3" dur="3s" repeatCount="indefinite"/>
  </path>
  <path d="M310 400 Q315 375 320 350 Q325 325 330 300" stroke="url(#steamGradient)" stroke-width="2" fill="none" opacity="0.5">
    <animate attributeName="opacity" values="0.2;0.7;0.2" dur="2.5s" repeatCount="indefinite"/>
  </path>
  
  <!-- Asian pattern elements -->
  <g opacity="0.2">
    <!-- Decorative circles -->
    <circle cx="150" cy="100" r="20" fill="none" stroke="#ffffff" stroke-width="2"/>
    <circle cx="1750" cy="500" r="25" fill="none" stroke="#ffffff" stroke-width="2"/>
    <circle cx="1800" cy="300" r="15" fill="none" stroke="#ffffff" stroke-width="2"/>
    
    <!-- Traditional patterns -->
    <path d="M100 200 L120 180 L140 200 L120 220 Z" fill="#ffffff" opacity="0.3"/>
    <path d="M1850 400 L1870 380 L1890 400 L1870 420 Z" fill="#ffffff" opacity="0.3"/>
  </g>
  
  <!-- Subtle texture overlay -->
  <rect width="1920" height="600" fill="url(#bgGradient)" opacity="0.1"/>
  
  <!-- Text will be overlaid via CSS, so this SVG focuses on background graphics -->
</svg>
